<svg viewBox="0 0 91 91" xml:space="preserve" xmlns="http://www.w3.org/2000/svg"><path d="m23.398 41.842-.006-.064a16.687 16.687 0 0 1-.117-1.859c0-.892.055-1.744.154-2.562.326-3.125 1.232-5.871 2.76-8.17-3.006.322-5.092 1.877-8.557 4.461-4.189 3.119-6.438 6.189-6.963 9.453-.002.008-.002.016-.002.023v.006c-.549 3.453.783 7.279 4.074 11.693 6.141 8.246 19.576 11.213 25.484 11.418-6.968-4.637-15.733-14.94-16.827-24.399z" fill="#aec3ae" class="fill-fae58f"></path><path d="M13.392 55.826c-2.803-3.766-4.273-7.184-4.484-10.377-2.32 3.092-4.104 7.701-4.986 13.092-.99 6.037-.418 10.396.373 11.227 1.275 1.336 5.777-.076 10.547-1.574 3.695-1.16 7.809-2.445 12.012-3.102-5.077-1.897-10.179-4.858-13.462-9.266z" fill="#aec3ae" class="fill-dabe92"></path><path d="m67.607 41.928.016-.131c.088-.631.139-1.26.139-1.879 0-12.589-11.531-17.056-21.404-17.056-9.856 0-21.356 4.453-21.401 16.99v.066c0 10.109 11.852 22.295 18.205 25.994a.832.832 0 0 1 .211.199c1.189.617 2.217.959 2.985.959.49 0 1.162-.209 1.959-.588a.853.853 0 0 1 .234-.191c6.101-3.303 17.607-14.475 19.056-24.363z" fill="#aec3ae" class="fill-fae58f"></path><path d="M76.551 54.822c3.299-4.428 4.631-8.262 4.074-11.723-.529-3.264-2.777-6.333-6.873-9.384l-1.123-.846c-2.338-1.766-3.854-2.91-5.932-3.424 1.436 2.26 2.289 4.934 2.598 7.961.096.801.146 1.639.146 2.511 0 .584-.045 1.172-.111 1.764l-.016.113c-1.107 9.297-10.049 19.381-16.83 24.15 6.76-.821 18.686-3.891 24.067-11.122z" fill="#aec3ae" class="fill-fae58f"></path><path d="M87.426 59.324c-.875-5.17-2.732-9.674-5.182-12.695-.459 2.855-1.883 5.891-4.346 9.197-3.332 4.475-8.723 7.355-13.996 9.18 4.387.629 8.689 1.979 12.539 3.188 4.768 1.498 9.264 2.912 10.545 1.574.903-.946 1.328-5.207.44-10.444z" fill="#aec3ae" class="fill-dabe92"></path><g fill="#332c39" class="fill-434b56"><path d="M46.182 70.236c-7.114 0-24.512-16.152-24.512-30.26 0-14.884 13.203-20.166 24.512-20.166 11.307 0 24.512 5.281 24.512 20.166-.001 13.446-17.772 30.26-24.512 30.26zm0-45.888c-9.659 0-19.977 4.105-19.977 15.628 0 11.439 15.365 25.725 19.977 25.725 3.52 0 19.975-14.139 19.975-25.725-.001-11.522-10.319-15.628-19.975-15.628zM85.051 73.471c-2.541 0-5.799-1.023-9.717-2.254-4.236-1.332-9.035-2.84-13.719-3.277a2.27 2.27 0 0 1-2.047-2.469 2.265 2.265 0 0 1 2.471-2.047c5.16.482 10.205 2.066 14.654 3.465 3.232 1.016 8.121 2.549 9.107 1.928 1.188-1.754.668-16.131-5.955-22.459a2.268 2.268 0 1 1 3.133-3.279c4.838 4.621 6.672 11.873 7.336 15.783.283 1.674 1.555 10.166-1.258 13.111-1.025 1.072-2.367 1.498-4.005 1.498zM5.876 73.471c-1.641 0-2.98-.426-4.006-1.5C-.946 69.028.382 59.897.677 58.096c.689-4.205 2.566-11.953 7.406-16.574a2.268 2.268 0 0 1 3.133 3.281C4.875 50.857 3.72 66.289 5.167 68.842c1.082.555 5.879-.951 9.068-1.953 4.449-1.398 9.494-2.982 14.654-3.465a2.261 2.261 0 0 1 2.469 2.047 2.268 2.268 0 0 1-2.047 2.469c-4.682.438-9.482 1.945-13.717 3.277-3.919 1.23-7.178 2.254-9.718 2.254z"></path><path d="m48.957 69.357-.219-.002a2.266 2.266 0 0 1-1.045-4.262c5.521-2.99 18.463-15.143 18.463-25.117 0-4.167-1.088-7.578-3.232-10.136a2.268 2.268 0 0 1 1.879-3.72c4.135.26 6.395 1.965 9.521 4.326l1.107.832c4.777 3.561 7.42 7.283 8.082 11.384.701 4.334-.82 8.938-4.646 14.074-7.724 10.375-25.838 12.621-29.91 12.621zm20.594-36.794c.76 2.229 1.143 4.705 1.143 7.414 0 8.777-7.33 17.975-13.754 23.797 6.361-1.402 14.279-4.359 18.289-9.746 3.057-4.104 4.303-7.584 3.809-10.643-.465-2.879-2.531-5.648-6.316-8.468l-1.131-.85a66.353 66.353 0 0 0-2.04-1.504zM40.705 69.424c-6.26 0-21.492-3.102-28.635-12.688-3.826-5.139-5.346-9.742-4.646-14.074.662-4.101 3.307-7.826 8.086-11.384l.088-.064c4.164-3.105 7.096-5.322 12.217-5.129a2.267 2.267 0 0 1 1.65 3.731c-2.162 2.557-3.258 5.975-3.258 10.162 0 9.568 11.391 21.205 17.496 24.76a2.263 2.263 0 0 1 1.107 1.66 2.28 2.28 0 0 1-.525 1.775c-.504.697-1.121 1.082-1.85 1.166-.523.057-1.1.085-1.73.085zM23.183 31.565c-1.416.705-2.885 1.801-4.875 3.285l-.088.066c-3.787 2.818-5.854 5.589-6.318 8.468-.494 3.059.752 6.539 3.807 10.643 4.609 6.186 13.617 9.248 19.992 10.357-6.535-5.787-14.031-15.328-14.031-24.408-.001-3.12.507-5.933 1.513-8.411z"></path><path d="M42.562 58.385c-.605 0-1.209-.24-1.654-.717-13.473-14.363-6.297-25.181-5.984-25.634a2.27 2.27 0 0 1 3.154-.584 2.272 2.272 0 0 1 .594 3.139c-.244.373-5.293 8.423 5.545 19.976a2.27 2.27 0 0 1-1.655 3.82z"></path></g></svg>