<svg viewBox="0 0 32 32" xml:space="preserve" xmlns="http://www.w3.org/2000/svg"><path d="M27.5 16c0-.531-.049-1.05-.118-1.562l2.872-1.493-.928-2.854-3.188.479a11.483 11.483 0 0 0-1.847-2.527l1.445-2.894-2.428-1.764-2.307 2.271c-.928-.45-1.923-.78-2.971-.967L17.5 1.5h-3l-.531 3.19a11.401 11.401 0 0 0-2.972.967L8.69 3.388 6.264 5.151l1.444 2.893a11.559 11.559 0 0 0-1.846 2.527l-3.189-.479-.927 2.854 2.872 1.492C4.549 14.95 4.5 15.469 4.5 16s.049 1.05.118 1.562l-2.872 1.493.928 2.854 3.188-.479a11.483 11.483 0 0 0 1.847 2.527L6.264 26.85l2.428 1.764 2.307-2.271c.928.45 1.923.78 2.971.967l.53 3.19h3l.531-3.19a11.401 11.401 0 0 0 2.972-.967l2.307 2.27 2.427-1.764-1.444-2.893a11.559 11.559 0 0 0 1.846-2.527l3.189.479.927-2.854-2.872-1.492c.068-.512.117-1.031.117-1.562zM16 19.5c-1.932 0-3.5-1.568-3.5-3.5s1.568-3.5 3.5-3.5 3.5 1.568 3.5 3.5-1.568 3.5-3.5 3.5z" fill="#FFFFFF" class="fill-ffffff"></path><path d="M28.833 21.833a.612.612 0 0 0 .648-.401l.31-.95c.085-.262.204-.674.266-.915.061-.242-.1-.522-.355-.623l-1.011-.762c-.256-.1-.655-.28-.888-.4-.231-.121-.396-.443-.364-.717 0 0 .062-.533.062-1.064s-.062-1.064-.062-1.064a.786.786 0 0 1 .387-.728l1.985-1.032a.612.612 0 0 0 .289-.706l-.119-.365c-.085-.262-.771-2.083-1.043-2.042 0 0-2.665.607-2.813.375l-.766-.512c-.177-.21-.279-.469-.227-.574.054-.105-.039-.364-.204-.574-.165-.211-.537-.935-.414-1.181l.646-1.296a.611.611 0 0 0-.181-.741l-.521-.379a.613.613 0 0 0-.761.057l-1.594 1.569a.826.826 0 0 1-.819.162l-2.023-.656a.829.829 0 0 1-.566-.615l-.064-.384c-.045-.271-.158-.516-.252-.542-.094-.027-.385-.303-.43-.574l-.117-.704A.612.612 0 0 0 17.25 3h-1.504a.612.612 0 0 0-.582.493l-.367 2.204a.83.83 0 0 1-.566.615l-2.025.658a.83.83 0 0 1-.819-.163L9.793 5.238a.613.613 0 0 0-.761-.056L7.416 6.355a.613.613 0 0 0-.181.742l.249.5c.123.246.224.447.223.448l.223.448.3.604a.825.825 0 0 1-.099.83l-1.256 1.722a.836.836 0 0 1-.762.349l-2.201-.33a.612.612 0 0 0-.648.401l-.31.95a.614.614 0 0 0 .29.706l.931.483a.785.785 0 0 1 .387.728S4.5 15.469 4.5 16c0 .434.035.778.035.778.028.273.123.558.211.631v.091c0 .531.361 1.133.361 1.133a.465.465 0 0 1-.187.659l-1.985 1.032a.612.612 0 0 0-.289.706l.119.365a.611.611 0 0 0 .648.401l1.954-.294a.836.836 0 0 1 .762.349l1.257 1.723c.177.21.279.469.227.574-.054.105-1.35 2.701-1.35 2.701-.123.246 1.279.93 1.502 1.091l.521.379a.613.613 0 0 0 .761-.057l1.594-1.569a.826.826 0 0 1 .819-.162l2.023.656a.829.829 0 0 1 .566.615l.064.384c.045.271.158.516.252.542.094.027.385.303.43.574l.117.704a.612.612 0 0 0 .582.493H17a.612.612 0 0 0 .582-.493l.367-2.204a.83.83 0 0 1 .566-.615l2.024-.657a.83.83 0 0 1 .819.163l1.594 1.568a.613.613 0 0 0 .761.057l1.616-1.174a.611.611 0 0 0 .181-.741l-.249-.5c-.123-.246-.224-.447-.223-.448l-.223-.448-.301-.604a.825.825 0 0 1 .099-.83l1.256-1.722a.836.836 0 0 1 .762-.349l2.202.331zM16 19.5c-1.932 0-3.5-1.568-3.5-3.5s1.568-3.5 3.5-3.5 3.5 1.568 3.5 3.5-1.568 3.5-3.5 3.5z" fill="#aec3ae" class="fill-80d8ff"></path><g fill="#aec3ae" class="fill-73c2e6"><path d="M26.825 12.708a.785.785 0 0 0-.387.728s-.035.542.062 1.064c.209 1.126-.205 2.387-.205 2.387-.031.273.133.596.364.717.175.09.443.215.675.313.012-.179.166-1.705.166-1.917 0-.531-.062-1.064-.062-1.064a.786.786 0 0 1 .387-.728l1.985-1.032a.612.612 0 0 0 .289-.706l-.119-.365a.611.611 0 0 0-.648-.401l-.808.121-1.699.883zM29.701 18.943l-.733-.553c-.058.204-.123.426-.177.591l-.31.95a.611.611 0 0 1-.648.401l-2.201-.33a.836.836 0 0 0-.762.349l-1.256 1.722a.825.825 0 0 0-.099.83l.301.604.223.448c-.001.001.1.202.223.448l.249.5a.611.611 0 0 1-.181.741l-1.616 1.174a.612.612 0 0 1-.761-.057l-1.594-1.568a.83.83 0 0 0-.819-.163l-2.024.657a.829.829 0 0 0-.566.615l-.367 2.204A.614.614 0 0 1 16 29h-1.347a.769.769 0 0 1 .144.303l.117.704a.612.612 0 0 0 .582.493H17a.612.612 0 0 0 .582-.493l.367-2.204a.83.83 0 0 1 .566-.615l2.024-.657a.83.83 0 0 1 .819.163l1.594 1.568a.613.613 0 0 0 .761.057l1.616-1.174a.611.611 0 0 0 .181-.741l-.249-.5c-.123-.246-.224-.447-.223-.448l-.223-.448-.301-.604a.825.825 0 0 1 .099-.83l1.256-1.722a.836.836 0 0 1 .762-.349l2.201.33a.612.612 0 0 0 .648-.401l.31-.95c.085-.262.204-.674.266-.915.061-.243-.099-.523-.355-.624zM14.229 27.071l-.064-.384c-.045-.271-.48-.495-.747-.563l-2.956-1.094a.826.826 0 0 0-.819.162l-1.594 1.569a.573.573 0 0 1-.319.148l-.144.288a.611.611 0 0 0 .181.741l.521.379a.613.613 0 0 0 .761-.057l1.594-1.569a.826.826 0 0 1 .819-.162l2.914.969a1.196 1.196 0 0 1-.147-.427z"></path></g><path d="M17.5 31h-3a.5.5 0 0 1-.493-.418l-.475-2.848a11.89 11.89 0 0 1-2.431-.792l-2.06 2.027a.5.5 0 0 1-.645.048L5.97 27.254a.5.5 0 0 1-.153-.628l1.29-2.583a12.03 12.03 0 0 1-1.513-2.068l-2.846.428a.492.492 0 0 1-.55-.34l-.928-2.854a.5.5 0 0 1 .245-.598l2.563-1.333C4.025 16.811 4 16.397 4 16s.025-.81.079-1.278L1.516 13.39a.5.5 0 0 1-.245-.598l.927-2.854a.494.494 0 0 1 .55-.34l2.848.427c.158-.274.329-.544.509-.804a.5.5 0 0 1 .821.569 10.59 10.59 0 0 0-.623 1.019.496.496 0 0 1-.515.257l-2.77-.416-.665 2.048 2.496 1.297a.5.5 0 0 1 .265.511C5.036 15.078 5 15.553 5 16s.036.922.113 1.494a.5.5 0 0 1-.265.511l-2.496 1.298.666 2.048 2.77-.416a.497.497 0 0 1 .515.258c.468.87 1.062 1.684 1.767 2.417a.5.5 0 0 1 .087.57L6.9 26.694l1.742 1.266 2.005-1.974a.505.505 0 0 1 .569-.094c.904.439 1.859.75 2.84.925a.5.5 0 0 1 .405.41L14.924 30h2.152l.462-2.772a.5.5 0 0 1 .405-.41 10.895 10.895 0 0 0 2.842-.925.5.5 0 0 1 .568.094l2.005 1.973 1.741-1.266-1.255-2.514a.499.499 0 0 1 .087-.57 11.042 11.042 0 0 0 1.766-2.417c.1-.186.299-.29.515-.258l2.771.415.665-2.048-2.496-1.297a.5.5 0 0 1-.265-.511c.077-.572.113-1.047.113-1.494s-.036-.922-.113-1.494a.5.5 0 0 1 .265-.511l2.496-1.298-.666-2.048-2.77.416a.502.502 0 0 1-.515-.258A11.029 11.029 0 0 0 23.93 8.39a.5.5 0 0 1-.087-.57L25.1 5.306 23.357 4.04l-2.005 1.974a.5.5 0 0 1-.569.094 10.87 10.87 0 0 0-2.84-.925.5.5 0 0 1-.405-.41L17.076 2h-2.152l-.462 2.772a.5.5 0 0 1-.405.41c-.979.175-1.936.485-2.842.925a.5.5 0 0 1-.568-.094L8.642 4.041 6.9 5.307 8.155 7.82a.5.5 0 0 1-.894.448L5.816 5.375a.5.5 0 0 1 .154-.628l2.427-1.764a.5.5 0 0 1 .645.048l2.06 2.026a11.9 11.9 0 0 1 2.432-.792l.475-2.848A.497.497 0 0 1 14.5 1h3a.5.5 0 0 1 .493.418l.475 2.848c.833.175 1.648.44 2.431.792l2.06-2.027a.5.5 0 0 1 .645-.048l2.428 1.764a.5.5 0 0 1 .153.628l-1.29 2.583a12.03 12.03 0 0 1 1.513 2.068l2.846-.428a.494.494 0 0 1 .55.34l.928 2.854a.5.5 0 0 1-.245.598l-2.563 1.333c.051.466.076.88.076 1.277s-.025.81-.079 1.278l2.563 1.332a.5.5 0 0 1 .245.598l-.927 2.854a.49.49 0 0 1-.55.34l-2.847-.427a12.093 12.093 0 0 1-1.512 2.068l1.289 2.582a.501.501 0 0 1-.153.628l-2.427 1.764a.5.5 0 0 1-.645-.048l-2.06-2.026a11.9 11.9 0 0 1-2.432.792l-.475 2.848a.495.495 0 0 1-.49.417zM16 20c-2.206 0-4-1.794-4-4s1.794-4 4-4 4 1.794 4 4-1.794 4-4 4zm0-7c-1.654 0-3 1.346-3 3s1.346 3 3 3 3-1.346 3-3-1.346-3-3-3z" fill="#332c39" class="fill-455a64"></path><path d="M16 24c-4.411 0-8-3.589-8-8s3.589-8 8-8 8 3.589 8 8a7.936 7.936 0 0 1-1.657 4.878.501.501 0 0 1-.793-.609A6.945 6.945 0 0 0 23 16c0-3.859-3.141-7-7-7s-7 3.141-7 7 3.141 7 7 7c.828 0 1.642-.145 2.42-.43a.5.5 0 0 1 .344.94A8.022 8.022 0 0 1 16 24z" fill="#332c39" class="fill-455a64"></path><circle cx="20.5" cy="22" fill="#332c39" r=".5" class="fill-455a64"></circle></svg>