<svg viewBox="0 0 32 32" xml:space="preserve" xmlns="http://www.w3.org/2000/svg"><path d="M30.21 10.03s-.284-2.058-1.153-2.964c-1.103-1.189-2.339-1.195-2.905-1.264C22.093 5.5 16.006 5.5 16.006 5.5h-.012s-6.087 0-10.146.302c-.567.069-1.803.074-2.906 1.264-.87.906-1.152 2.964-1.152 2.964s-.29 2.416-.29 4.832v2.266c0 2.416.29 4.832.29 4.832s.283 2.058 1.152 2.963c1.104 1.189 2.553 1.153 3.198 1.277 2.32.229 9.86.3 9.86.3s6.093-.009 10.152-.312c.566-.07 1.803-.076 2.905-1.266.87-.905 1.153-2.963 1.153-2.963s.29-2.416.29-4.832v-2.266c0-2.415-.29-4.831-.29-4.831z" fill="#fff4f4" class="fill-ffffff"></path><path d="M29.755 8.282c-1.019-.897-2.088-.917-2.604-.98C23.093 7 17.006 7 17.006 7h-.012s-6.087 0-10.146.302c-.567.069-1.803.074-2.906 1.264-.87.906-1.152 2.964-1.152 2.964s-.29 2.416-.29 4.832v2.266c0 2.416.29 4.832.29 4.832s.124.875.449 1.734c1.054.902 2.311.892 2.901 1.006 2.32.229 9.86.3 9.86.3s6.093-.009 10.152-.312c.566-.07 1.803-.076 2.905-1.266.87-.905 1.153-2.963 1.153-2.963s.29-2.416.29-4.832v-2.266c0-2.416-.29-4.833-.29-4.833s-.126-.881-.455-1.746z" fill="#aec3ae" class="fill-ff8a80"></path><path d="M16 27h-.005c-.309-.003-7.588-.074-9.904-.302-.146-.026-.269-.041-.407-.058-.774-.096-2.069-.256-3.109-1.377-.965-1.004-1.269-3.144-1.281-3.235a46.579 46.579 0 0 1-.294-4.9v-2.266c0-2.418.281-4.792.293-4.892.014-.099.317-2.239 1.288-3.25 1.118-1.205 2.363-1.329 3.032-1.396l.175-.019C9.841 5.003 15.933 5 15.994 5c.073 0 6.165.003 10.195.303l.198.021c.669.066 1.914.19 3.037 1.402.965 1.005 1.27 3.145 1.282 3.235.013.109.294 2.483.294 4.901v2.266c0 2.418-.281 4.792-.293 4.892-.014.099-.318 2.239-1.29 3.25-1.116 1.205-2.36 1.33-3.029 1.397l-.176.019C22.159 26.988 16.062 27 16 27zm.006-21c-.072 0-6.128.003-10.121.3l-.173.019c-.575.057-1.537.153-2.403 1.087-.627.654-.952 2.164-1.024 2.692-.002.015-.285 2.408-.285 4.764v2.266c0 2.358.283 4.749.286 4.772.072.52.398 2.032 1.016 2.676.797.859 1.784.981 2.505 1.071.164.021.309.039.428.062 2.21.216 9.591.289 9.767.291.16 0 6.153-.015 10.113-.31l.174-.019c.575-.058 1.537-.154 2.402-1.088.627-.653.952-2.164 1.025-2.691.001-.016.284-2.408.284-4.764v-2.266c0-2.356-.283-4.749-.286-4.773-.072-.52-.399-2.032-1.018-2.677-.871-.94-1.833-1.036-2.408-1.093l-.197-.021C22.122 6.003 16.066 6 16.006 6z" fill="#332c39" class="fill-455a64"></path><path fill="#fff4f4" d="M12.5 19.5v-8l9 4z" class="fill-ffffff"></path><path d="M12.5 20a.497.497 0 0 1-.5-.5v-5.969a.5.5 0 0 1 1 0v5.199l7.269-3.23-7.972-3.543a.5.5 0 0 1 .406-.914l9 4a.5.5 0 0 1 0 .914l-9 4A.497.497 0 0 1 12.5 20z" fill="#332c39" class="fill-455a64"></path></svg>